<svg width="261" height="397" viewBox="0 0 261 397" fill="none" xmlns="http://www.w3.org/2000/svg">
<path d="M58.0315 116.046C65.5053 109.68 76.4947 109.68 83.9685 116.046L115.934 143.273C119.348 146.181 121.686 150.153 122.572 154.549L141.204 247.051C141.73 249.657 141.73 252.343 141.204 254.949L122.572 347.451C121.686 351.847 119.348 355.819 115.934 358.727L83.9686 385.954C76.4947 392.32 65.5053 392.32 58.0315 385.954L26.0659 358.727C22.6517 355.819 20.3139 351.847 19.4283 347.451L0.795523 254.949C0.270448 252.343 0.270448 249.657 0.795523 247.051L19.4283 154.549C20.3139 150.153 22.6517 146.181 26.0659 143.273L58.0315 116.046Z" fill="#5F5050"/>
<line x1="71.4997" y1="1.01811" x2="59.4997" y2="332.018" stroke="#808080"/>
<line x1="71.2577" y1="0.571501" x2="224.258" y2="92.5715" stroke="black"/>
<ellipse cx="237.5" cy="105.5" rx="23.5" ry="24.5" fill="#DFD19E"/>
</svg>
